<?xml version="1.0" standalone="no"?><!DOCTYPE svg PUBLIC "-//W3C//DTD SVG 1.1//EN" "http://www.w3.org/Graphics/SVG/1.1/DTD/svg11.dtd"><svg t="1683790564018" class="icon" viewBox="0 0 1024 1024" version="1.1" xmlns="http://www.w3.org/2000/svg" p-id="1264" xmlns:xlink="http://www.w3.org/1999/xlink" width="200" height="200"><path d="M712 856.48H228.64c-7.68 0-14.88-3.68-19.52-9.76-4.64-6.08-6.08-14.08-3.84-21.44l83.52-285.44c3.04-10.4 12.64-17.6 23.36-17.6h483.36c7.68 0 14.88 3.68 19.52 9.76 4.64 6.08 6.08 14.08 3.84 21.44l-83.52 285.44c-3.04 10.4-12.48 17.6-23.36 17.6z m-450.88-48.64h432.64l69.28-236.64H330.4l-69.28 236.64z" fill="#2A2C2C" p-id="1265"></path><path d="M712 856.48H228.48c-13.44 0-24.32-10.88-24.32-24.32V361.6c0-13.44 10.88-24.32 24.32-24.32h163.04v48.64H252.8v421.76h459.2v48.8z" fill="#2A2C2C" p-id="1266"></path><path d="M759.04 549.6H710.4V216.16H435.04v333.44h-48.64V191.84c0-13.44 10.88-24.32 24.32-24.32h324c13.44 0 24.32 10.88 24.32 24.32v357.76z" fill="#2A2C2C" p-id="1267"></path><path d="M484.96 268.8h188.96v48.64H484.96zM484.96 349.76h188.96v48.64H484.96z" fill="#2A2C2C" p-id="1268"></path><path d="M484.96 430.72h188.96v48.64H484.96z" fill="#2A2C2C" p-id="1269"></path></svg>